<svg width="48" height="47" viewBox="0 0 48 47" fill="none" xmlns="http://www.w3.org/2000/svg">
<g clip-path="url(#clip0_6_4)">
<mask id="mask0_6_4" style="mask-type:luminance" maskUnits="userSpaceOnUse" x="0" y="-1" width="48" height="48">
<path d="M48 -1H0V47H48V-1Z" fill="white"/>
</mask>
<g mask="url(#mask0_6_4)">
<path d="M0 14.5792C0 8.35769 3.83632 2.74813 9.87831 1.26425C19.9862 -1.2182 35.2427 -3.26324 42.753 4.24707C49.0925 10.5867 48.6236 22.4456 46.8302 32.0683C45.1204 41.2426 36.587 47 27.2548 47H7.5C3.35787 47 0 43.6421 0 39.5V14.5792Z" fill="#FE705A"/>
</g>
<path d="M10 29.1802C10 27.568 10.0049 26.0453 10.0148 24.6122C10.0246 23.1791 10.0541 21.7622 10.1033 20.3613C10.1558 18.9605 10.2231 17.5381 10.3051 16.0943C10.3871 14.6504 10.5003 13.0883 10.6446 11.408H11.5353V24.3059H18.2422C18.2192 23.4998 18.2078 22.6328 18.2078 21.7048C18.2078 20.7769 18.1979 19.8364 18.1782 18.8834C18.1586 17.9304 18.1438 17.0007 18.134 16.0943C18.1241 15.1878 18.1192 14.3315 18.1192 13.5254C18.1192 12.7193 18.1192 12.0135 18.1192 11.408C18.1192 10.8061 18.1192 10.3368 18.1192 10C18.1782 10 18.2849 10.0161 18.439 10.0484C18.5932 10.0842 18.7474 10.129 18.9016 10.1827C19.0558 10.24 19.1935 10.3189 19.3149 10.4192C19.4396 10.5195 19.5019 10.6485 19.5019 10.8061V35.9624L18.5473 35.7635C18.5079 35.7635 18.4768 35.6166 18.4538 35.3229C18.4341 35.0327 18.4194 34.669 18.4095 34.2319C18.3997 33.7948 18.3898 33.2914 18.38 32.7218C18.3701 32.1521 18.3587 31.5932 18.3455 31.0451C18.3357 30.4933 18.3259 29.972 18.316 29.4812C18.3062 28.9868 18.3013 28.573 18.3013 28.2398C18.3013 27.9245 18.3013 27.4981 18.3013 26.9607C18.3013 26.4233 18.2914 25.8071 18.2717 25.112L11.5353 26.4233L11.4762 36H10C10 35.9749 10 35.8173 10 35.5271C10 35.2369 10 34.8732 10 34.4361C10 33.999 10 33.5172 10 32.9905C10 32.4638 10 31.9551 10 31.4642C10 30.9698 10 30.522 10 30.1207C10 29.7159 10 29.4024 10 29.1802ZM35.2187 35.9301L23.409 15.9438C23.409 16.0119 23.4024 16.157 23.3893 16.3791C23.3794 16.6048 23.3745 16.8359 23.3745 17.0723C23.3745 17.3052 23.3745 17.5291 23.3745 17.7441C23.3745 17.9555 23.3745 18.0952 23.3745 18.1633C23.3745 19.6179 23.4057 21.0725 23.468 22.5271C23.5303 23.9817 23.6025 25.4434 23.6845 26.9124C23.7665 28.3777 23.8387 29.8502 23.901 31.3299C23.9601 32.806 23.9896 34.2839 23.9896 35.7635L22.8825 35.6937C22.8628 35.2673 22.8267 34.6744 22.7742 33.9148C22.725 33.1517 22.6643 32.2722 22.5921 31.2761C22.52 30.2801 22.4429 29.2107 22.3609 28.0678C22.2788 26.9285 22.1919 25.7713 22.1001 24.5961C22.0082 23.4174 21.9311 22.2584 21.8688 21.1191C21.8065 19.9762 21.7507 18.9175 21.7015 17.943C21.649 16.9684 21.6129 16.1068 21.5932 15.358C21.5735 14.6056 21.5735 14.0288 21.5932 13.6275C21.5932 13.3588 21.6851 13.1349 21.8688 12.9558C22.0525 12.7766 22.2674 12.6871 22.5134 12.6871C22.7594 12.6871 23.0416 12.748 23.3598 12.8698C23.678 12.9952 23.8879 13.1582 23.9896 13.3588L35.0612 32.8723C35.0612 31.844 35.0366 30.7352 34.9874 29.5457C34.9349 28.3598 34.889 27.1399 34.8496 25.8859C34.807 24.6319 34.7808 23.3726 34.7709 22.1079C34.7611 20.8432 34.7808 19.6125 34.83 18.4159C34.8825 17.2157 34.9858 16.0781 35.14 15.0033C35.2942 13.9285 35.5139 12.954 35.7993 12.0798C36.088 11.9687 36.3144 11.9078 36.4784 11.8971C36.6424 11.8863 36.7654 11.8917 36.8475 11.9132C36.9295 11.9347 36.9754 11.9902 36.9852 12.0798C36.9951 12.1694 37 12.2589 37 12.3485C37 12.3951 37 12.4631 37 12.5527C37 12.6423 37 12.6978 37 12.7193C36.9606 12.8555 36.9147 13.1027 36.8622 13.4609C36.8097 13.8192 36.7425 14.3512 36.6605 15.057C36.5785 15.7593 36.5079 16.6711 36.4489 17.7925C36.3866 18.9103 36.3242 20.2986 36.2619 21.9574C36.1996 23.6127 36.1536 25.5832 36.1241 27.869C36.0946 30.1512 36.0897 32.8149 36.1093 35.8603L35.2187 35.9301Z" fill="white"/>
</g>
<defs>
<clipPath id="clip0_6_4">
<rect width="48" height="47" fill="white"/>
</clipPath>
</defs>
</svg>
